#!OML:ASF F:\VICON\USERDATA\INSTALL\rory3\rory3.ASF
:FULLY-SPECIFIED
:DEGREES
211
root 1.44882 17.738 5.46377 -0.550002 -60.161 0.273001
lowerback 9.29008 2.85376 2.33245
upperback 0.120624 4.044 0.142372
thorax -4.92726 1.93804 -1.69563
lowerneck -18.3329 -8.10609 -13.7808
upperneck 27.5231 -11.3017 11.6618
head 13.9508 -5.03927 4.91848
rclavicle -4.31611e-014 -1.39149e-014
rhumerus -28.4092 -13.316 -82.9141
rradius 34.3405
rwrist 4.69382
rhand -15.5517 9.68023
rfingers 7.12502
rthumb 10.6326 -20.0308
lclavicle -4.31611e-014 -1.39149e-014
lhumerus -39.0532 10.4675 80.359
lradius 27.4802
lwrist -10.4303
lhand -17.191 26.2289
lfingers 7.12502
lthumb 9.05104 56.0147
rfemur 12.3246 0.979626 28.4984
rtibia 23.898
rfoot -11.0656 4.2759
rtoes 1.01297
lfemur -18.8128 -5.58586 -17.4042
ltibia 15.1271
lfoot 0.507516 -13.4231
ltoes -11.7395
212
root 1.3191 17.7459 5.55325 -1.68522 -60.6238 1.35501
lowerback 9.35476 2.94005 1.67422
upperback 0.182888 4.08154 0.00999177
thorax -4.93261 1.97092 -1.473
lowerneck -18.1738 -8.08139 -13.613
upperneck 27.4639 -11.2954 11.5345
head 13.8673 -5.04126 4.83918
rclavicle 3.99557e-014 -1.98785e-016
rhumerus -28.5538 -13.9137 -82.7226
rradius 33.7543
rwrist 4.96215
rhand -15.5341 10.1606
rfingers 7.12502
rthumb 10.6495 -19.5495
lclavicle 3.99557e-014 -1.98785e-016
lhumerus -38.9387 10.4117 80.2613
lradius 27.3224
lwrist -10.4072
lhand -17.429 26.4446
lfingers 7.12502
lthumb 8.82134 56.2402
rfemur 11.8638 1.22514 27.8345
rtibia 26.0695
rfoot -10.2115 4.50192
rtoes 0.485289
lfemur -18.066 -5.67585 -17.9604
ltibia 15.2755
lfoot 0.374582 -13.3677
ltoes -11.3722
213
root 1.18846 17.7568 5.63957 -2.93839 -61.0974 2.55887
lowerback 9.39485 3.02435 0.92391
upperback 0.276111 4.10488 -0.119608
thorax -4.89972 1.999 -1.19181
lowerneck -18.1072 -8.04371 -13.3914
upperneck 27.4121 -11.2546 11.3513
head 13.7932 -5.02543 4.73324
rclavicle -7.83212e-014 -1.19271e-014
rhumerus -28.6756 -14.177 -82.6448
rradius 33.2457
rwrist 4.98644
rhand -15.4021 10.6061
rfingers 7.12502
rthumb 10.7769 -19.0975
lclavicle -7.83212e-014 -1.19271e-014
lhumerus -38.7659 10.2882 80.2193
lradius 27.1253
lwrist -10.212
lhand -17.083 26.764
lfingers 7.12502
lthumb 9.15527 56.5453
rfemur 11.2662 1.38802 27.0501
rtibia 28.4625
rfoot -9.10889 4.83326
rtoes 1.48593
lfemur -17.2017 -5.56571 -18.597
ltibia 15.2525
lfoot 0.122629 -12.6967
ltoes -14.3122
214
root 1.05859 17.7686 5.73117 -4.13762 -61.35 3.75223
lowerback 9.30934 3.02929 0.357268
upperback 0.390031 4.03898 -0.308053
thorax -4.7597 1.97866 -1.05354
lowerneck -18.0532 -7.98855 -13.3178
upperneck 27.342 -11.2188 11.4151
head 13.7454 -4.99742 4.75303
rclavicle -3.557e-014 1.39149e-015
rhumerus -28.8077 -14.7237 -82.5786
rradius 32.7593
rwrist 5.47499
rhand -15.3197 10.5999
rfingers 7.12502
rthumb 10.8564 -19.0995
lclavicle -3.557e-014 1.39149e-015
lhumerus -38.5571 10.5342 79.9775
lradius 26.8879
lwrist -10.503
lhand -17.1416 26.697
lfingers 7.12502
lthumb 9.09866 56.4808
rfemur 10.493 1.29321 26.217
rtibia 31.0097
rfoot -7.66521 5.25494
rtoes 3.11452
lfemur -16.3915 -5.45526 -19.2707
ltibia 15.1197
lfoot 0.00347072 -11.8469
ltoes -16.5524
215
root 0.927834 17.7821 5.82157 -5.05904 -61.5398 4.55152
lowerback 9.3136 2.99982 0.0203298
upperback 0.464948 3.95504 -0.461015
thorax -4.69719 1.94304 -1.01083
lowerneck -17.8119 -7.91856 -13.3301
upperneck 27.2447 -11.1909 11.5778
head 13.6612 -4.9783 4.82959
rclavicle -2.22266e-014 1.03368e-014
rhumerus -29.0699 -15.5307 -82.4134
rradius 32.2001
rwrist 6.30414
rhand -15.5652 9.8261
rfingers 7.12502
rthumb 10.6196 -19.8856
lclavicle -2.22266e-014 1.03368e-014
lhumerus -38.5417 10.857 79.6116
lradius 26.8033
lwrist -10.8216
lhand -17.2038 26.6109
lfingers 7.12502
lthumb 9.03866 56.3972
rfemur 9.67096 1.10005 25.5815
rtibia 33.6383
rfoot -5.79971 5.80566
rtoes 4.20794
lfemur -15.5179 -5.32504 -19.735
ltibia 14.9538
lfoot -0.15189 -11.5569
ltoes -17.0052
216
root 0.800143 17.7916 5.9107 -5.76986 -61.6371 5.04674
lowerback 9.44327 2.90932 -0.205717
upperback 0.524866 3.80484 -0.536581
thorax -4.71878 1.87197 -0.948766
lowerneck -17.6765 -7.86202 -13.3399
upperneck 27.2671 -11.1494 11.6329
head 13.6396 -4.9622 4.86579
rclavicle 1.43995e-014 -1.27222e-014
rhumerus -29.3637 -15.9505 -82.3071
rradius 31.6964
rwrist 6.73632
rhand -16.0352 8.36726
rfingers 7.12502
rthumb 10.1662 -21.3671
lclavicle 1.43995e-014 -1.27222e-014
lhumerus -38.5839 11.1922 79.2899
lradius 26.7572
lwrist -10.957
lhand -17.0309 26.8346
lfingers 7.12502
lthumb 9.20554 56.6137
rfemur 8.83734 0.626569 25.0097
rtibia 36.2423
rfoot -3.4885 6.2302
rtoes 4.59752
lfemur -14.6583 -4.75424 -20.1585
ltibia 14.9133
lfoot -0.390057 -12.5047
ltoes -16.9257
